<svg width="174" height="174" viewBox="0 0 174 174" fill="none" xmlns="http://www.w3.org/2000/svg">
<path d="M86.8427 0C38.8691 0 0 38.8691 0 86.8427C0 134.816 38.8691 173.685 86.8427 173.685C134.816 173.685 173.685 134.816 173.685 86.8427C173.685 38.8691 134.816 0 86.8427 0ZM86.8427 156.877C48.1487 156.877 16.8083 125.537 16.8083 86.8427C16.8083 48.1487 48.1487 16.8083 86.8427 16.8083C125.537 16.8083 156.877 48.1487 156.877 86.8427C156.877 125.537 125.537 156.877 86.8427 156.877ZM122.49 65.062L100.709 86.8427L122.49 108.623C124.136 110.269 124.136 112.931 122.49 114.576L114.576 122.49C112.931 124.136 110.269 124.136 108.623 122.49L86.8427 100.709L65.062 122.49C63.4162 124.136 60.7549 124.136 59.1091 122.49L51.1952 114.576C49.5494 112.931 49.5494 110.269 51.1952 108.623L72.9759 86.8427L51.1952 65.062C49.5494 63.4162 49.5494 60.7549 51.1952 59.1091L59.1091 51.1952C60.7549 49.5494 63.4162 49.5494 65.062 51.1952L86.8427 72.9759L108.623 51.1952C110.269 49.5494 112.931 49.5494 114.576 51.1952L122.49 59.1091C124.136 60.7549 124.136 63.4162 122.49 65.062Z" fill="#d3d3d3"/>
</svg>
